HIERARCHY
ROOT Hips
{
  OFFSET 36.6023 99.2877 -14.6442
  CHANNELS 6 Xposition Yposition Zposition Zrotation Xrotation Yrotation
  JOINT RightUpLeg
  {
    OFFSET -8.9458 -8.66707 0.101652
    CHANNELS 3 Zrotation Xrotation Yrotation
    JOINT RightLeg
    {
      OFFSET 0 -44.4227 1.3727
      CHANNELS 3 Zrotation Xrotation Yrotation
      JOINT RightFoot
      {
        OFFSET 0.253549 -42.0924 -1.46059
        CHANNELS 3 Zrotation Xrotation Yrotation
        JOINT RightToes
        {
          OFFSET 0.04 -4.41509 8.4991
          CHANNELS 3 Zrotation Xrotation Yrotation
          End Site
          {
            OFFSET -0.08 -0.137448 9.77979
          }
        }
      }
    }
  }
  JOINT Spine
  {
    OFFSET 0 11.8905 0
    CHANNELS 3 Zrotation Xrotation Yrotation
    JOINT Spine1
    {
      OFFSET 0 25.6574 0.127663
      CHANNELS 3 Zrotation Xrotation Yrotation
      JOINT HEad
      {
        OFFSET 0 8.73416 0.011341
        CHANNELS 3 Zrotation Xrotation Yrotation
        End Site
        {
          OFFSET -0.29 12.7742 2.51395
        }
      }
      JOINT LeftShoulder1
      {
        OFFSET 8.99 -0.362252 -0.22
        CHANNELS 3 Zrotation Xrotation Yrotation
        JOINT LeftArm
        {
          OFFSET 10.2827 -0.00338 0.322123
          CHANNELS 3 Zrotation Xrotation Yrotation
          JOINT LeftForeArm
          {
            OFFSET 32.7669 0.099144 -1.42434
            CHANNELS 3 Zrotation Xrotation Yrotation
            JOINT LeftHand
            {
              OFFSET 27.5643 0.085362 1.02216
              CHANNELS 3 Zrotation Xrotation Yrotation
              End Site
              {
                OFFSET 16.7443 -0.6 1.50291
              }
            }
          }
        }
      }
      JOINT RightShoulder
      {
        OFFSET -8.99 -0.362252 -0.22
        CHANNELS 3 Zrotation Xrotation Yrotation
        JOINT RightArm
        {
          OFFSET -10.2827 -0.00338 0.322123
          CHANNELS 3 Zrotation Xrotation Yrotation
          JOINT RightForeArm
          {
            OFFSET -32.8971 0.099144 -1.42434
            CHANNELS 3 Zrotation Xrotation Yrotation
            JOINT RightHand
            {
              OFFSET -30.0137 1.42257 -0.284231
              CHANNELS 3 Zrotation Xrotation Yrotation
              End Site
              {
                OFFSET -16.6312 -0.6 1.50291
              }
            }
          }
        }
      }
    }
  }
  JOINT LeftUpLeg
  {
    OFFSET 8.9458 -8.66707 0.101652
    CHANNELS 3 Zrotation Xrotation Yrotation
    JOINT LeftLeg
    {
      OFFSET 0 -44.4227 1.3727
      CHANNELS 3 Zrotation Xrotation Yrotation
      JOINT LeftFoot
      {
        OFFSET -0.253549 -42.0924 -1.46059
        CHANNELS 3 Zrotation Xrotation Yrotation
        JOINT LeftToes
        {
          OFFSET -0.04 -4.41509 8.4991
          CHANNELS 3 Zrotation Xrotation Yrotation
          End Site
          {
            OFFSET 0.08 -0.047448 9.77979
          }
        }
      }
    }
  }
}
MOTION
Frames:	19
Frame Time:	0.0166667
40.0844 96.9777 -7.76466 9.37193 12.7633 150.414 -28.8993 3.69953 -4.24364 36.0525 50.4309 -2.15521 -31.1237 1.11034 -1.52702 0.0462048 0.000533403 0.662642 -9.27922 23.3534 -17.6805 0.0186212 9.11589e-009 0.0823396 4.37881 12.0502 12.8907 -1.59028e-015 -3.18055e-015 6.36111e-015 -157.037 -67.5637 -136.002 -104.266 37.4337 -23.846 47.4508 56.7875 -53.3254 16.6914 31.9509 66.3994 -62.2278 -74.2477 -107.057 64.2276 16.0708 33.8911 56.9091 11.5135 19.3093 15.0751 -16.9618 -33.4943 -29.6066 14.3486 77.8493 13.2665 -2.88623 0.581665 -9.35095e-009 1.56019e-007 -4.87131e-009 
39.8284 97.0582 -7.77133 8.09486 15.0689 158.174 -29.4331 7.12288 -6.38251 31.6448 52.5685 7.33274 -29.7034 0.941077 -1.51272 0.0462048 0.000533403 0.662642 -6.93426 26.0446 -20.0563 0.0250973 9.11589e-009 0.0654694 2.98759 9.93246 12.7423 -1.59028e-015 1.59028e-015 -3.18055e-015 -171.701 -63.8504 -151.894 -109.858 40.9063 -19.1532 35.1354 37.5672 -32.9738 12.0622 27.9647 74.9121 -88.5648 -76.9678 -135.453 68.3362 15.1746 34.5307 53.8845 12.2796 21.5189 10.1838 -16.9766 -37.6763 -28.2186 14.8548 75.1997 15.4083 -2.91483 0.762617 -9.35094e-009 1.56019e-007 -4.87131e-009 
39.4929 97.1689 -7.90789 6.13755 17.432 167.077 -29.9781 11.1111 -8.12235 27.0434 53.6906 15.4619 -24.7318 0.55484 -1.50918 0.0462048 0.000533403 0.662642 -3.75675 28.2903 -22.8817 0.0177685 9.11589e-009 0.0553196 0.711917 7.83888 12.4858 -7.95139e-016 3.18055e-015 -0 179.351 -59.257 -161.603 -115.35 44.0487 -14.8483 31.1352 34.7356 -33.4759 13.5287 25.2807 67.9587 -161.347 -85.9383 154.568 72.1727 14.0467 35.5779 52.1876 13.8875 22.3629 4.66875 -16.2367 -41.8601 -26.7065 15.6425 71.7898 17.481 -3.07132 0.960985 -9.35094e-009 1.56019e-007 -4.87131e-009 
39.172 97.214 -8.13233 3.381 19.5379 177.054 -30.153 15.5736 -9.7999 24.9556 54.7531 18.0406 -20.4361 0.780667 -1.46079 0.0462048 0.000533403 0.662642 0.0297725 29.7831 -26.1791 0.00924762 9.11589e-009 0.0450598 -2.38892 6.06638 12.2137 -0 -1.59028e-015 -0 174.962 -54.8009 -166.74 -118.962 46.8609 -11.2905 28.0569 17.5372 -25.0611 14.2456 22.2375 60.8044 131.148 -77.0134 89.7285 75.9216 13.1842 36.9738 50.2946 14.954 22.9692 -1.10763 -14.79 -45.8097 -25.2869 16.8378 67.7237 19.3049 -3.45786 1.16205 -9.35095e-009 1.56019e-007 -4.87132e-009 
38.8914 97.2322 -8.41937 0.737248 20.9417 -174.316 -29.7342 19.352 -9.71194 26.2597 53.914 15.5715 -16.6638 0.783212 -1.61502 0.0462048 0.000533403 0.662642 3.77428 30.1404 -27.4574 0.00598114 9.11589e-009 0.0330699 -6.27154 5.03663 11.9814 -0 0 3.18055e-015 176.925 -52.2929 -162.853 -121.743 48.9124 -8.00407 25.899 14.902 -26.629 7.01556 12.7338 62.0417 148.574 -68.6254 101.51 79.6666 13.2117 38.3997 49.2622 16.944 22.5937 -5.61249 -12.9018 -47.3313 -23.7041 18.2896 62.8909 20.7987 -3.94381 1.36627 -9.35095e-009 1.56019e-007 -4.87131e-009 
38.6655 97.2345 -8.77162 -1.6333 21.8072 -167.021 -28.8413 22.5585 -8.12529 29.4929 51.7584 9.95422 -13.9315 0.851198 -1.782 0.0462048 0.000533403 0.662642 7.13458 29.6785 -26.6685 -0.00401779 9.1159e-009 0.0291501 -9.92572 5.12119 10.2817 -3.97569e-016 0 -1.59028e-015 -177.398 -50.9146 -153.707 -123.267 50.2712 -5.36657 25.7952 7.32833 -23.0554 6.57175 11.1238 52.5777 137.577 -57.078 93.9794 82.9336 13.5581 39.3732 48.4035 17.7945 21.2218 -8.92304 -10.9385 -46.6757 -21.9301 19.9498 57.283 21.8987 -4.53528 1.57122 -9.35095e-009 1.56019e-007 -4.87132e-009 
38.4912 97.2458 -9.18902 -3.63683 22.286 -161.022 -27.6443 25.293 -5.17734 33.4096 48.4637 2.73977 -11.6608 0.893088 -1.97838 0.0462048 0.000533403 0.662642 9.97632 28.7084 -23.8979 -0.0102983 0.00456002 0.0262878 -13.0999 6.35293 7.30025 9.93923e-017 1.59028e-015 3.97569e-016 -168.882 -49.5501 -140.897 -123.365 51.2053 -3.75737 24.4157 7.27207 -24.7118 6.09935 10.0595 42.5594 131.788 -44.5599 92.4379 85.404 13.5399 39.7502 47.8456 18.8327 19.7827 -11.1711 -9.11882 -44.1148 -19.9213 21.7292 50.8907 22.6028 -5.21202 1.77319 -9.35095e-009 1.56019e-007 -4.87132e-009 
38.3517 97.2878 -9.67631 -5.2293 22.5113 -156.26 -26.2735 27.6973 -0.979959 37.1828 44.0917 -5.0349 -9.81638 0.954485 -2.19234 0.0462048 0.000533403 0.662642 12.2908 27.521 -19.3299 -0.012648 0.01633 0.024314 -15.5106 8.59582 3.16584 -7.95139e-016 0 -1.59028e-015 -152.62 -47.1863 -120.818 -116.119 54.2507 -8.05853 24.534 4.09245 -22.8916 6.26006 9.68696 31.9918 126.98 -31.7504 93.1913 87.2266 12.5885 39.8945 31.1471 24.9311 10.1651 -12.4877 -7.5312 -39.8927 -17.641 23.4945 43.7114 22.9587 -5.93725 1.9679 -9.35095e-009 1.56019e-007 -4.87131e-009 
38.2213 97.3568 -10.2182 -6.40208 22.5937 -152.668 -24.846 29.6538 3.28779 39.7973 39.5931 -11.9249 -8.17288 1.05978 -2.40928 0.0462048 0.000533403 0.662642 14.1082 26.4778 -13.3096 -0.0137172 0.04378 0.0239481 -16.3572 11.8536 -3.45115 -1.98785e-015 7.95139e-016 -0 -135.148 -39.834 -100.185 -102.794 57.6164 -18.0935 23.4367 4.93007 -24.1914 7.39807 9.43495 20.8707 121.888 -19.0252 94.7777 83.2924 9.99604 41.1684 30.5011 26.4475 8.25304 -13.2076 -6.18805 -35.3776 -15.3678 24.9548 37.0008 22.9722 -6.67049 2.13829 -9.35094e-009 1.56019e-007 -4.87132e-009 
38.1075 97.4145 -10.8012 -6.56244 22.2994 -152.188 -24.1929 29.8673 9.36544 42.3151 34.9864 -21.5297 -4.89939 1.49651 -2.65824 0.0462048 0.000533403 0.662642 14.761 25.201 -5.63304 -0.0141354 0.01169 -0.0802427 -15.8523 15.4636 -10.4215 -7.95139e-016 1.59028e-015 3.18055e-015 -121.929 -29.1191 -84.5879 -87.3735 55.089 -31.3751 22.1489 8.38899 -24.4549 9.02474 9.47712 11.4186 118.018 -11.0826 95.9973 79.8938 7.45145 42.1445 23.2518 30.7232 3.97973 -12.9585 -6.09798 -29.0892 -13.2015 26.2629 30.8681 22.6534 -7.43071 2.27819 -9.35094e-009 1.56019e-007 -4.87131e-009 
37.954 97.5712 -11.4327 -5.83124 21.813 -154.285 -23.8403 28.8348 16.5494 44.0389 29.1132 -30.4234 -6.54142 1.4819 -2.71667 0.0462048 0.000533403 0.662642 14.7531 24.0126 2.84143 -0.0142147 0.01032 -0.0864227 -14.2364 18.6508 -17.7589 -2.38542e-015 0 3.18055e-015 -115.344 -19.839 -76.4112 -78.7256 51.8934 -39.4814 20.3951 11.8326 -25.786 11.0473 9.34111 3.03635 115.008 -6.13616 96.1303 72.6954 3.70844 43.4205 27.8563 29.4152 5.0375 -11.8795 -6.64638 -21.4908 -10.9372 27.0415 25.2172 22.0391 -7.98677 2.36238 -9.35095e-009 1.56019e-007 -4.87132e-009 
37.8027 97.7223 -12.073 -4.35961 21.1547 -158.502 -24.3202 26.6905 25.0267 45.8405 23.8621 -39.661 -3.01965 2.01662 -2.87192 0.0462048 0.000533403 0.662642 14.3158 23.5846 10.5261 -0.0134682 0.05591 -0.173239 -12.317 20.1577 -24.0993 1.98785e-015 7.95139e-016 6.36111e-015 -112.109 -13.8322 -72.7436 -74.2554 49.0716 -44.0054 19.2888 12.7223 -25.2038 12.7226 8.57684 -2.90792 114.768 -6.43973 94.2105 67.5511 1.82495 43.1801 16.4015 37.4278 1.01353 -10.0577 -7.79193 -12.9125 -8.84298 27.743 20.2536 21.1258 -8.52621 2.40267 -9.35095e-009 1.56019e-007 -4.87131e-009 
37.5947 97.9314 -12.7505 -2.32082 20.2568 -164.435 -24.6 23.5495 32.7336 48.2586 21.2878 -46.0931 -7.04214 2.35418 -3.03259 0.0462048 0.000533403 0.662642 13.4349 23.6216 17.5043 -0.0124251 0.04545 -0.151252 -10.36 20.3994 -29.6194 7.95139e-016 2.38542e-015 9.54166e-015 -110.422 -10.6515 -71.1505 -77.8677 44.3386 -42.6064 19.1305 18.508 -26.6186 19.8762 4.41844 -16.5485 109.109 -1.88614 86.3148 63.1765 1.42213 41.9043 29.002 26.6486 9.55072 -7.56335 -9.07168 -4.60846 -7.32847 28.0286 17.0491 19.9087 -8.96942 2.38201 -9.35094e-009 1.56019e-007 -4.87131e-009 
37.3782 98.2244 -13.3586 0.108812 19.0275 -171.73 -25.2825 19.6846 40.1593 48.8683 17.3847 -50.0359 -7.51359 2.44057 -2.92148 0.0462048 0.000533403 0.662642 12.1539 23.836 23.8693 -0.0110988 0.02935 -0.131175 -8.52677 19.6083 -34.2807 -7.95139e-016 7.95139e-016 6.36111e-015 -109.576 -9.97956 -70.5771 -80.2636 41.9455 -41.7312 12.4778 4.54139 -18.7021 20.1869 3.92662 -17.6189 111.245 -7.55142 84.148 59.2173 2.66625 40.2748 18.0214 38.1344 2.51273 -4.43521 -10.2757 3.412 -6.33728 27.9184 15.3855 18.3928 -9.19231 2.27505 -9.35095e-009 1.56019e-007 -4.87132e-009 
37.161 98.5463 -13.8705 2.46832 17.5141 -179.244 -25.5839 15.2485 47.2008 49.9689 14.3407 -53.6058 -8.0124 2.56804 -2.85365 0.0462048 0.000533403 0.662642 10.7146 23.8863 30.0679 -0.00964774 0.00277 -0.0389275 -6.64872 18.535 -38.7425 -7.95139e-016 7.95139e-016 3.18055e-015 -108.788 -9.93699 -70.156 -82.58 40.0236 -41.0005 10.2731 -0.832319 -15.443 21.4974 2.37126 -21.7411 111.497 -10.4294 80.1861 55.1166 4.9568 39.2553 12.6913 41.998 1.80042 -1.09633 -11.1049 11.4186 -5.45418 27.7237 14.1005 16.6956 -9.32367 2.1266 -9.35095e-009 1.56019e-007 -4.87131e-009 
36.9539 98.8771 -14.2552 4.70534 15.6966 173.053 -25.3812 10.2748 53.8814 51.5776 11.9895 -56.8528 -8.50208 2.68517 -2.7452 0.0462048 0.000533403 0.662642 9.17693 23.7462 36.1132 -0.00814332 0.00487999 -0.0285886 -4.80093 17.122 -42.8684 7.95139e-016 0 3.18055e-015 -108.156 -10.4618 -69.9615 -84.718 38.5317 -40.2689 9.62967 -1.37451 -14.188 23.2107 0.0521456 -27.3574 110.073 -11.8532 75.3843 51.0478 7.97204 39.044 12.9934 39.7045 3.31459 2.45969 -11.5885 19.4099 -4.69397 27.4761 13.1768 14.8382 -9.37233 1.94324 -9.35094e-009 1.56019e-007 -4.87131e-009 
36.7577 99.2124 -14.4883 6.59854 13.7278 165.789 -24.7282 5.27611 59.7616 52.9717 9.43952 -59.8941 -9.8312 2.67007 -2.51578 0.0462048 0.000533403 0.662642 7.63747 23.4404 41.3669 -0.00680092 0.0069274 -0.0258796 -2.94334 15.3979 -46.7124 -2.38542e-015 7.95139e-016 3.18055e-015 -108.068 -10.6442 -69.2118 -85.7731 38.2062 -39.526 9.57539 0.492837 -13.9109 24.9349 -2.76389 -33.6969 107.305 -12.3395 70.6836 48.6346 11.109 38.7666 15.5459 35.6232 5.88708 5.89921 -11.6524 26.7862 -4.05414 27.1271 12.5941 12.8586 -9.29891 1.72799 -9.35094e-009 1.56019e-007 -4.87131e-009 
36.6023 99.2877 -14.6442 8.1004 11.6659 158.952 -23.6106 0.637652 64.9514 53.2671 6.55315 -62.9598 -11.3525 2.56173 -2.19208 0.0462048 0.000533403 0.662642 5.93649 22.9075 45.8886 -0.0057704 0.00878258 -0.0248548 -0.861832 13.9696 -49.7237 -1.19271e-015 -7.95139e-016 -3.18055e-015 -108.541 -12.6762 -68.5418 -86.3713 39.2371 -38.0558 11.3602 7.29938 -12.5956 24.0311 -2.715 -39.8176 106.561 -11.2404 67.221 46.185 14.389 39.443 21.8986 35.5094 6.39084 9.1238 -11.3433 33.5218 -2.96787 26.8749 11.7854 10.2822 -9.10758 1.44784 -9.35095e-009 1.56019e-007 -4.87132e-009 
36.4304 99.3893 -14.8448 9.21872 9.56667 152.52 -22.1791 -3.30954 69.5645 52.2531 3.61844 -65.9075 -12.8281 2.39551 -1.88397 0.0462048 0.000533403 0.662642 4.11211 22.116 49.6606 -0.00520186 0.00947999 -0.0246999 1.40191 12.9186 -51.8297 1.59028e-015 0 -0 -109.705 -16.4493 -68.3254 -86.8228 41.4079 -35.8813 13.8402 15.7336 -11.5276 20.9494 -0.0364715 -44.6028 107.976 -9.36682 64.7271 43.349 17.6346 41.0531 28.5765 37.683 7.41609 12.0498 -10.7774 39.5873 -1.67202 26.681 10.8503 7.32992 -8.86792 1.13743 -9.35094e-009 1.56019e-007 -4.87131e-009 
